HIERARCHY
ROOT SpineBase
{
  OFFSET 0.000000 0.000000 0.000000
  CHANNELS 6 Xposition Yposition Zposition Zrotation Xrotation Yrotation
  JOINT SpineMid
  {
    OFFSET 0.000000 22.322381 0.000000
    CHANNELS 3 Zrotation Xrotation Yrotation
    JOINT SpineShoulder
    {
      OFFSET 0.137481 16.821011 -0.816421
      CHANNELS 3 Zrotation Xrotation Yrotation
      JOINT Neck
      {
        OFFSET 0.030579 5.652687 -0.548385
        CHANNELS 3 Zrotation Xrotation Yrotation
        JOINT Head
        {
          OFFSET -0.467896 11.655256 1.617392
          CHANNELS 3 Zrotation Xrotation Yrotation
          End Site
          {
            OFFSET 0 0 0
          }
        }
      }
      JOINT ShoulderLeft
      {
        OFFSET -11.867202 -3.373140 4.003049
        CHANNELS 3 Zrotation Xrotation Yrotation
        JOINT ElbowLeft
        {
          OFFSET -7.072479 -20.863258 -0.448541
          CHANNELS 3 Zrotation Xrotation Yrotation
          JOINT WristLeft
          {
            OFFSET -1.422014 -8.444215 -17.126766
            CHANNELS 3 Zrotation Xrotation Yrotation
            JOINT HandLeft
            {
              OFFSET -0.485664 -2.092675 -5.315305
              CHANNELS 3 Zrotation Xrotation Yrotation
              JOINT HandTipLeft
              {
                OFFSET -0.644973 -2.524971 -7.614149
                CHANNELS 3 Zrotation Xrotation Yrotation
                End Site
                {
                  OFFSET 0 0 0
                }
              }
              JOINT ThumbLeft
              {
                OFFSET -2.511724 1.178636 -1.297482
                CHANNELS 3 Zrotation Xrotation Yrotation
                End Site
                {
                  OFFSET 0 0 0
                }
              }
            }
          }
        }
      }
      JOINT ShoulderRight
      {
        OFFSET 8.897912 -2.908858 -8.728308
        CHANNELS 3 Zrotation Xrotation Yrotation
        JOINT ElbowRight
        {
          OFFSET -1.256713 -19.315960 -5.609190
          CHANNELS 3 Zrotation Xrotation Yrotation
          JOINT WristRight
          {
            OFFSET 7.572674 -10.904154 -11.912927
            CHANNELS 3 Zrotation Xrotation Yrotation
            JOINT HandRight
            {
              OFFSET 0.267712 -0.928794 -0.178981
              CHANNELS 3 Zrotation Xrotation Yrotation
              JOINT HandTipRight
              {
                OFFSET -2.683222 -3.930737 -1.348295
                CHANNELS 3 Zrotation Xrotation Yrotation
                End Site
                {
                  OFFSET 0 0 0
                }
              }
              JOINT ThumbRight
              {
                OFFSET -3.814594 -1.414155 -3.442077
                CHANNELS 3 Zrotation Xrotation Yrotation
                End Site
                {
                  OFFSET 0 0 0
                }
              }
            }
          }
        }
      }
    }
  }
  JOINT HipLeft
  {
    OFFSET -5.310783 0.991328 -0.244130
    CHANNELS 3 Zrotation Xrotation Yrotation
    JOINT KneeLeft
    {
      OFFSET -20.763235 -2.497348 -22.414320
      CHANNELS 3 Zrotation Xrotation Yrotation
      JOINT AnkleLeft
      {
        OFFSET -0.112232 -35.065122 -0.474614
        CHANNELS 3 Zrotation Xrotation Yrotation
        JOINT FootLeft
        {
          OFFSET -4.792873 -1.573868 -10.126210
          CHANNELS 3 Zrotation Xrotation Yrotation
          End Site
          {
            OFFSET 0 0 0
          }
        }
      }
    }
  }
  JOINT HipRight
  {
    OFFSET 4.884056 1.448218 -5.416885
    CHANNELS 3 Zrotation Xrotation Yrotation
    JOINT KneeRight
    {
      OFFSET -23.339776 0.567728 -22.258040
      CHANNELS 3 Zrotation Xrotation Yrotation
      JOINT AnkleRight
      {
        OFFSET 8.399877 -38.488717 -6.082773
        CHANNELS 3 Zrotation Xrotation Yrotation
        JOINT FootRight
        {
          OFFSET -4.912874 -1.543173 -10.103982
          CHANNELS 3 Zrotation Xrotation Yrotation
          End Site
          {
            OFFSET 0 0 0
          }
        }
      }
    }
  }
}
MOTION
Frames: 9
Frame Time: 0.033333
31.518137 40.125477 389.280750 -4.360268 0.678317 20.115954 0.480468 0.579777 -20.274943 -0.150555 0.159879 -0.207081 -3.304284 2.914282 1.796125 0.000000 0.000000 0.000000 2.727578 6.656757 -2.183839 -0.023371 -13.237589 8.101756 -0.136384 -0.976264 2.237402 0.211416 -7.073916 1.361353 0.000000 0.000000 0.000000 0.000000 0.000000 0.000000 136.090069 76.559910 -132.259321 25.093412 34.426952 36.280707 94.220810 41.575134 164.553124 -13.261708 22.213343 -153.380884 0.000000 0.000000 0.000000 0.000000 0.000000 0.000000 4.840369 -3.325649 -26.319018 -2.003426 -1.271897 6.368620 0.035970 2.794309 1.885093 0.000000 0.000000 0.000000 7.054721 -13.335041 -37.953947 -13.639494 -2.367105 18.583163 6.127720 8.329775 2.055237 0.000000 0.000000 0.000000
31.412042 40.092580 389.240628 -4.614190 0.729126 19.788697 0.438218 0.545590 -19.957724 -0.167419 0.179903 -0.221337 -2.182731 2.248642 1.639261 0.000000 0.000000 0.000000 2.751727 7.005561 -2.250530 0.285399 -13.938810 8.372116 -0.228964 0.487180 2.350111 -0.578805 -10.890708 5.702780 0.000000 0.000000 0.000000 0.000000 0.000000 0.000000 135.783106 73.776055 -130.403927 16.965491 35.249480 37.755926 98.340678 48.200478 -169.307617 -1.293743 31.028374 175.353481 0.000000 0.000000 0.000000 0.000000 0.000000 0.000000 5.155832 -3.592480 -26.182656 -2.227192 -1.259432 6.582862 0.086222 2.915488 2.068990 0.000000 0.000000 0.000000 7.377267 -13.553448 -37.771254 -13.766476 -2.329864 18.785324 6.120562 8.361350 2.235815 0.000000 0.000000 0.000000
31.372112 40.076804 389.208495 -4.809376 0.814265 19.356552 0.371213 0.593117 -19.532902 -0.252325 0.271884 -0.239668 -0.867175 1.462250 1.475882 0.000000 0.000000 0.000000 2.882740 7.208644 -2.319491 0.723111 -14.529571 8.268114 0.141974 1.239312 1.107177 -1.020831 -10.732519 8.034885 0.000000 0.000000 0.000000 0.000000 0.000000 0.000000 137.394300 71.635649 -130.874626 17.992662 32.174749 36.853602 103.377847 47.524954 -165.627032 6.097785 35.819935 154.641445 0.000000 0.000000 0.000000 0.000000 0.000000 0.000000 5.468651 -4.021535 -25.850041 -2.575308 -1.126438 6.716692 0.164080 3.070325 2.024399 0.000000 0.000000 0.000000 7.650250 -13.683530 -37.350121 -13.824379 -2.340848 18.836671 6.127900 8.448004 2.191819 0.000000 0.000000 0.000000
31.397154 40.074483 389.176299 -4.891029 0.908425 19.110931 0.367113 0.613900 -19.286685 -0.253623 0.336097 -0.241452 -0.477334 0.784114 1.393894 0.000000 0.000000 0.000000 2.930888 7.136964 -2.336824 1.134233 -15.292282 7.869671 0.497119 2.334610 -0.184474 -0.835198 -8.540680 6.388469 0.000000 0.000000 0.000000 0.000000 0.000000 0.000000 136.780320 71.361928 -129.922369 24.162436 27.210459 35.048214 104.271904 33.783155 169.741631 2.451030 40.908843 157.142549 0.000000 0.000000 0.000000 0.000000 0.000000 0.000000 5.595030 -4.279592 -25.578912 -2.746249 -1.154491 6.713497 0.230758 3.272477 1.823598 0.000000 0.000000 0.000000 7.762843 -13.746898 -37.010561 -13.860956 -2.372021 18.768653 6.184345 8.520279 1.983840 0.000000 0.000000 0.000000
31.461948 40.012109 389.168114 -4.799728 0.902419 18.865422 0.473573 0.539405 -19.032510 -0.143287 0.305905 -0.220612 -2.177758 1.105553 1.564118 0.000000 0.000000 0.000000 2.645484 7.278818 -2.401542 1.846331 -16.331686 6.803090 1.539013 2.800604 -3.707135 -0.812099 -4.270434 4.503011 0.000000 0.000000 0.000000 0.000000 0.000000 0.000000 135.148972 71.337868 -128.448567 29.364932 21.881774 33.905740 87.084434 11.208336 127.262440 -8.061762 45.752261 153.233867 0.000000 0.000000 0.000000 0.000000 0.000000 0.000000 5.540346 -4.249301 -25.352611 -2.843103 -1.371086 6.729455 0.367361 3.464727 1.711440 0.000000 0.000000 0.000000 7.591590 -13.218165 -36.665650 -13.472351 -2.673319 18.556890 6.227711 8.544024 1.880304 0.000000 0.000000 0.000000
31.548198 39.915247 389.164800 -4.608892 0.828669 18.506357 0.619161 0.441205 -18.661350 0.019446 0.232997 -0.188852 -4.488952 1.823094 1.823059 0.000000 0.000000 0.000000 2.128679 7.388394 -2.437432 2.246637 -17.270497 6.335440 2.405685 2.395394 -6.589269 -0.106612 -0.162344 -0.396172 0.000000 0.000000 0.000000 0.000000 0.000000 0.000000 136.962099 71.334431 -131.180653 31.158706 16.559807 34.911026 64.152187 3.664924 89.209652 39.410895 1.968692 11.083561 0.000000 0.000000 0.000000 0.000000 0.000000 0.000000 5.379664 -4.005806 -25.044431 -2.869493 -1.727732 6.759017 0.575932 3.685699 1.363475 0.000000 0.000000 0.000000 7.387278 -12.672731 -36.296258 -13.220398 -3.022700 18.440999 6.418276 8.599970 1.527453 0.000000 0.000000 0.000000
31.628437 39.833737 389.211780 -4.422987 0.697164 18.338295 0.750569 0.368177 -18.483852 0.150032 0.155861 -0.161855 -6.059165 1.981545 1.949167 0.000000 0.000000 0.000000 1.743281 7.463683 -2.445607 2.371918 -18.053676 6.181778 2.659856 1.956326 -7.599441 0.471569 0.105069 -3.013553 0.000000 0.000000 0.000000 0.000000 0.000000 0.000000 139.059297 71.769110 -134.358881 30.838557 15.466631 35.909921 58.311672 10.282779 76.421140 8.322196 -24.303182 -36.435988 0.000000 0.000000 0.000000 0.000000 0.000000 0.000000 5.216098 -3.696904 -24.962846 -2.806643 -2.004475 6.818282 0.726333 3.806067 0.906973 0.000000 0.000000 0.000000 7.201442 -12.227381 -36.129778 -13.061192 -3.295765 18.352223 6.611708 8.653013 1.064711 0.000000 0.000000 0.000000
31.722107 39.771672 389.236794 -4.157721 0.507283 18.225355 0.829791 0.320638 -18.362994 0.273002 0.081447 -0.134599 -7.364613 2.035509 2.029544 0.000000 0.000000 0.000000 1.324841 7.387787 -2.387995 2.208233 -17.815807 6.193806 2.513699 1.434187 -7.093525 1.124745 -3.270565 -4.373786 0.000000 0.000000 0.000000 0.000000 0.000000 0.000000 142.496225 71.652129 -138.892870 26.883171 16.967969 37.486339 68.923864 19.723882 85.994235 -21.357459 -18.060778 -77.940430 0.000000 0.000000 0.000000 0.000000 0.000000 0.000000 4.992833 -3.328097 -24.899375 -2.770866 -2.219002 6.835027 0.906433 3.852919 0.402339 0.000000 0.000000 0.000000 7.011004 -11.860057 -35.897191 -13.002932 -3.409367 18.166292 6.760695 8.647316 0.561618 0.000000 0.000000 0.000000
31.800718 39.778999 389.240572 -3.928748 0.319228 18.817688 0.917306 0.254338 -18.947759 0.323617 0.023630 -0.115870 -7.979299 1.763793 1.995249 0.000000 0.000000 0.000000 0.845767 6.819422 -2.150011 2.109645 -16.861030 5.996095 1.551174 1.666930 -3.970598 1.705929 -5.362883 -6.051548 0.000000 0.000000 0.000000 0.000000 0.000000 0.000000 147.001619 71.255510 -144.499789 18.735241 20.567647 40.190418 85.163015 32.284922 115.910518 -23.999911 -6.142038 -98.310319 0.000000 0.000000 0.000000 0.000000 0.000000 0.000000 4.776525 -3.075622 -25.454356 -2.731780 -2.275181 6.772607 1.024352 3.792601 -0.049496 0.000000 0.000000 0.000000 6.765004 -11.731004 -36.326752 -13.067840 -3.350464 17.977373 6.866648 8.569780 0.103914 0.000000 0.000000 0.000000
